<svg width="24" height="24" viewBox="0 0 24 24" fill="none" xmlns="http://www.w3.org/2000/svg">
<path fill-rule="evenodd" clip-rule="evenodd" d="M11.9996 9.64111C10.6696 9.64111 9.58862 10.7231 9.58862 12.0531C9.58862 13.3821 10.6696 14.4631 11.9996 14.4631C13.3296 14.4631 14.4116 13.3821 14.4116 12.0531C14.4116 10.7231 13.3296 9.64111 11.9996 9.64111M11.9996 15.9631C9.84262 15.9631 8.08862 14.2091 8.08862 12.0531C8.08862 9.89611 9.84262 8.14111 11.9996 8.14111C14.1566 8.14111 15.9116 9.89611 15.9116 12.0531C15.9116 14.2091 14.1566 15.9631 11.9996 15.9631" fill="#888F97"/>
<mask id="mask0_3608_48080" style="mask-type:luminance" maskUnits="userSpaceOnUse" x="2" y="4" width="20" height="17">
<path fill-rule="evenodd" clip-rule="evenodd" d="M2.00024 4H22.0001V20.105H2.00024V4Z" fill="white"/>
</mask>
<g mask="url(#mask0_3608_48080)">
<path fill-rule="evenodd" clip-rule="evenodd" d="M3.56999 12.0523C5.42999 16.1613 8.56299 18.6043 12 18.6053C15.437 18.6043 18.57 16.1613 20.43 12.0523C18.57 7.94426 15.437 5.50126 12 5.50026C8.56399 5.50126 5.42999 7.94426 3.56999 12.0523V12.0523ZM12.002 20.1053H11.998H11.997C7.86099 20.1023 4.14699 17.2033 2.06099 12.3483C1.97999 12.1593 1.97999 11.9453 2.06099 11.7563C4.14699 6.90226 7.86199 4.00326 11.997 4.00026C11.999 3.99926 11.999 3.99926 12 4.00026C12.002 3.99926 12.002 3.99926 12.003 4.00026C16.139 4.00326 19.853 6.90226 21.939 11.7563C22.021 11.9453 22.021 12.1593 21.939 12.3483C19.854 17.2033 16.139 20.1023 12.003 20.1053H12.002Z" fill="#888F97"/>
</g>
</svg>
